
<svg xmlns="http://www.w3.org/2000/svg" version="1.1" xmlns:xlink="http://www.w3.org/1999/xlink"
    xmlns:svgjs="http://svgjs.dev/svgjs" viewBox="0 0 800 100" preserveAspectRatio="xMidYMid slice">
    <defs>
        <pattern id="pppixelate-pattern" width="20" height="20" patternUnits="userSpaceOnUse"
            patternTransform="scale(8) rotate(0)" shape-rendering="crispEdges">
            <path d="M 0 0.5 h10
                 M-1 1.5 h10m10 0h10
                 M-2 2.5 h10m10 0h10
                 M-3 3.5 h10m10 0h10
                 M-4 4.5 h10m10 0h10
                 M-5 5.5 h10m10 0h10
                 M-6 6.5 h10m10 0h10
                 M-7 7.5 h10m10 0h10
                 M-8 8.5 h10m10 0h10
                 M-9 9.5 h10m10 0h10
                 M10 10.5 h10
                 M9 11.5 h10
                 M8 12.5 h10
                 M7 13.5 h10
                 M6 14.5 h10
                 M5 15.5 h10
                 M4 16.5 h10
                 M3 17.5 h10
                 M2 18.5 h10
                 M1 19.5 h10
                 " stroke="hsl(10, 75%, 20%)" />
            <path d="M 10 0.5 h10
                 M9 1.5 h10
                 M8 2.5 h10
                 M7 3.5 h10
                 M6 4.5 h10
                 M5 5.5 h10
                 M4 6.5 h10
                 M3 7.5 h10
                 M2 8.5 h10
                 M1 9.5 h10
                 M0 10.5 h10
                 M-1 11.5 h10m10 0h10
                 M-2 12.5 h10m10 0h10
                 M-3 13.5 h10m10 0h10
                 M-4 14.5 h10m10 0h10
                 M-5 15.5 h10m10 0h10
                 M-6 16.5 h10m10 0h10
                 M-7 17.5 h10m10 0h10
                 M-8 18.5 h10m10 0h10
                 M-9 19.5 h10m10 0h10
                 " stroke="hsl(10, 75%, 60%)" />
        </pattern>
    </defs>
    <rect width="100%" height="100%" fill="url(#pppixelate-pattern)"></rect>
</svg> 